<svg xmlns="http://www.w3.org/2000/svg" viewBox="0 0 400 600">
  <defs>
    <linearGradient id="bg" x1="0" y1="0" x2="0" y2="1">
      <stop offset="0" stop-color="#0d0f1e"/><stop offset="1" stop-color="#131629"/>
    </linearGradient>
  </defs>
  <rect width="400" height="600" fill="url(#bg)"/>
  <g stroke="#e8b84b" stroke-opacity="0.12" stroke-width="14">
    <line x1="-20" y1="80" x2="420" y2="30"/><line x1="-20" y1="130" x2="420" y2="80"/>
    <line x1="-20" y1="180" x2="420" y2="130"/><line x1="-20" y1="230" x2="420" y2="180"/>
  </g>
  <rect x="240" y="80" width="10" height="380" fill="#0d0f1e"/>
  <path d="M245 80 q40 0 40 24 q0 18 -28 18 q-12 0 -12 -10 z" fill="#0d0f1e"/>
  <path d="M262 118 L150 460 L374 460 Z" fill="#e8b84b" opacity="0.16"/>
  <ellipse cx="262" cy="460" rx="112" ry="16" fill="#e8b84b" opacity="0.2"/>
  <g fill="#0d0f1e">
    <ellipse cx="262" cy="452" rx="34" ry="10"/>
    <rect x="252" y="360" width="20" height="90" rx="8"/>
    <rect x="238" y="330" width="48" height="36" rx="10"/>
    <ellipse cx="262" cy="326" rx="30" ry="9"/>
    <circle cx="262" cy="312" r="12"/>
  </g>
  <path d="M262 460 L100 560 L40 545 Q160 480 240 456 Z" fill="#0d0f1e" opacity="0.85"/>
</svg>
